<?xml version="1.0" encoding="UTF-8"?>
<svg width="16" height="16" viewBox="0 0 16 16" fill="none" xmlns="http://www.w3.org/2000/svg">
  <title>GetMeFcknABI Favicon 16x16</title>
  <defs>
    <linearGradient id="flameGradient" x1="50%" y1="0%" x2="50%" y2="100%">
      <stop offset="0%" stop-color="#FF5E62" />
      <stop offset="100%" stop-color="#FF9966" />
    </linearGradient>
  </defs>
  <path d="M8 1C8.8 1 9.2 1.4 9.7 1.9L14 7.1C14.6 7.8 14.6 8.7 14.3 9.5C14 10.2 13.4 10.8 12.6 11C11.8 11.2 11 11 10.4 10.4C9.6 9.5 9.7 8.2 10.5 7.5C10.7 7.3 10.8 7 10.8 6.7C10.8 6.4 10.7 6.1 10.5 5.9L10.3 5.7C9.9 5.3 9.3 5.3 8.9 5.7L8.8 5.8C7.8 7 7.2 8.6 7.2 10.3V11C7.2 11.9 7 12.8 6.5 13.6C6 14.3 5.2 15 4.3 15C3.5 15 2.8 14.6 2.4 14C1.3 12.8 1.4 11 2.6 9.9C3.2 9.4 3.5 8.7 3.5 7.9C3.5 6.8 2.8 5.8 1.9 5.3C1.7 5.2 1.6 4.9 1.7 4.7C1.8 4.6 1.9 4.5 2 4.5C2.6 4.2 3.3 4.2 3.9 4.3C4.5 4.4 5.1 4.7 5.5 5.1C5.9 5.5 6.1 6 6.2 6.5C6.3 7.1 6.1 7.7 5.9 8.3C5.6 8.8 5.8 9.5 6.4 9.9C7 10.2 7.8 10 8.1 9.4C8.2 9.2 8.3 9.1 8.3 8.9C8.3 8.7 8.3 8.4 8.2 8.2C8 7.5 8 6.9 8.1 6.3C8.2 5.7 8.3 5.1 8.6 4.7C8.9 4.1 9.3 3.5 9.8 3C10.3 2.6 10.9 2.3 11.5 2.3C12.1 2.3 12.7 2.6 13.1 3.1L11.2 1.8C10.8 1.4 10.3 1.4 9.9 1.8C9.5 2.2 9.4 2.8 9.9 3.3L13.5 7.8C13.7 8 13.9 8 14 8C14.2 8 14.4 7.8 14.4 7.5C14.4 7.4 14.4 7.3 14.3 7.1L11.3 3.6C11.2 3.4 11.2 3.2 11.3 3C11.5 2.9 11.7 2.9 11.8 3L14.6 6.6C14.8 6.8 14.8 6.9 14.8 7C14.8 7.3 14.5 7.4 14.3 7.4C14.1 7.4 14 7.4 13.9 7.3L10.8 3.2C10.7 3 10.7 2.8 10.8 2.6C10.9 2.5 11.1 2.5 11.3 2.6L14.7 7.2C14.9 7.4 14.9 7.5 14.9 7.7C14.9 8 14.6 8.1 14.4 8.1C14.2 8.1 14.1 8 13.9 7.9L11.6 5C11.4 4.9 11.4 4.7 11.6 4.5C11.7 4.4 11.9 4.4 12.1 4.5L13.8 7.6C14 7.7 14 7.9 14 8C14 8.3 13.8 8.4 13.5 8.4C13.4 8.4 13.2 8.4 13.1 8.2L5.6 4.1C5.4 3.9 5.4 3.7 5.6 3.6C5.7 3.4 5.9 3.4 6 3.6L12.4 11.7C12.5 11.9 12.8 12 13 11.8C13.2 11.7 13.3 11.4 13.1 11.2L4.8 3.2C4.7 3 4.7 2.8 4.8 2.7C5 2.5 5.2 2.5 5.4 2.7L13.3 10.4C13.5 10.7 13.5 11.1 13.3 11.4C13 11.6 12.6 11.6 12.3 11.4L4 3.2C3.9 3 3.9 2.8 4 2.7C4.2 2.5 4.4 2.5 4.5 2.7L12.7 10.6C13 10.9 13 11.4 12.7 11.7C12.6 11.8 12.4 11.9 12.2 11.9C12 11.9 11.8 11.8 11.6 11.7L4 5C3.9 4.8 3.9 4.6 4 4.5C4.2 4.3 4.4 4.3 4.5 4.5L12.7 11.8C13 12.1 13 12.6 12.7 12.9C12.6 13 12.4 13.1 12.2 13.1C12 13.1 11.8 13 11.6 12.8L4.6 5.6C3.7 4.6 3.8 3 4.6 2C5.6 1.1 7.3 1.1 8.3 2L12.7 6.6C12.9 6.9 12.9 7.3 12.7 7.6C12.4 7.9 12 7.9 11.7 7.6L10.1 5.7C9.9 5.5 9.9 5.3 10.1 5.1C10.2 5 10.4 5 10.6 5.1L11.8 7.4L8 1Z" fill="url(#flameGradient)"/>
</svg> 