<?xml version="1.0" encoding="UTF-8"?>
<svg width="32" height="32" viewBox="0 0 32 32" fill="none" xmlns="http://www.w3.org/2000/svg">
  <title>GetMeFcknABI Favicon 32x32</title>
  <defs>
    <linearGradient id="flameGradient" x1="50%" y1="0%" x2="50%" y2="100%">
      <stop offset="0%" stop-color="#FF5E62" />
      <stop offset="100%" stop-color="#FF9966" />
    </linearGradient>
  </defs>
  <path d="M16 2C17.6 2 18.4 2.8 19.4 3.8L28 14.2C29.2 15.6 29.2 17.4 28.6 19C28 20.4 26.8 21.6 25.2 22C23.6 22.4 22 22 20.8 20.8C19.2 19 19.4 16.4 21 15C21.4 14.6 21.6 14 21.6 13.4C21.6 12.8 21.4 12.2 21 11.8L20.6 11.4C19.8 10.6 18.6 10.6 17.8 11.4L17.6 11.6C15.6 14 14.4 17.2 14.4 20.6V22C14.4 23.8 14 25.6 13 27.2C12 28.6 10.4 30 8.6 30C7 30 5.6 29.2 4.8 28C2.6 25.6 2.8 22 5.2 19.8C6.4 18.8 7 17.4 7 15.8C7 13.6 5.6 11.6 3.8 10.6C3.4 10.4 3.2 9.8 3.4 9.4C3.6 9.2 3.8 9 4 9C5.2 8.4 6.6 8.4 7.8 8.6C9 8.8 10.2 9.4 11 10.2C11.8 11 12.2 12 12.4 13C12.6 14.2 12.2 15.4 11.8 16.6C11.2 17.6 11.6 19 12.8 19.8C14 20.4 15.6 20 16.2 18.8C16.4 18.4 16.6 18.2 16.6 17.8C16.6 17.4 16.6 16.8 16.4 16.4C16 15 16 13.8 16.2 12.6C16.4 11.4 16.6 10.2 17.2 9.4C17.8 8.2 18.6 7 19.6 6C20.6 5.2 21.8 4.6 23 4.6C24.2 4.6 25.4 5.2 26.2 6.2L22.4 3.6C21.6 2.8 20.6 2.8 19.8 3.6C19 4.4 18.8 5.6 19.8 6.6L27 15.6C27.4 16 27.8 16 28 16C28.4 16 28.8 15.6 28.8 15C28.8 14.8 28.8 14.6 28.6 14.2L22.6 7.2C22.4 6.8 22.4 6.4 22.6 6C23 5.8 23.4 5.8 23.6 6L29.2 13.2C29.6 13.6 29.6 13.8 29.6 14C29.6 14.6 29 14.8 28.6 14.8C28.2 14.8 28 14.8 27.8 14.6L21.6 6.4C21.4 6 21.4 5.6 21.6 5.2C21.8 5 22.2 5 22.6 5.2L29.4 14.4C29.8 14.8 29.8 15 29.8 15.4C29.8 16 29.2 16.2 28.8 16.2C28.4 16.2 28.2 16 27.8 15.8L23.2 10C22.8 9.8 22.8 9.4 23.2 9C23.4 8.8 23.8 8.8 24.2 9L27.6 15.2C28 15.4 28 15.8 28 16C28 16.6 27.6 16.8 27 16.8C26.8 16.8 26.4 16.8 26.2 16.4L11.2 8.2C10.8 7.8 10.8 7.4 11.2 7.2C11.4 6.8 11.8 6.8 12 7.2L24.8 23.4C25 23.8 25.6 24 26 23.6C26.4 23.4 26.6 22.8 26.2 22.4L9.6 6.4C9.4 6 9.4 5.6 9.6 5.4C10 5 10.4 5 10.8 5.4L26.6 20.8C27 21.4 27 22.2 26.6 22.8C26 23.2 25.2 23.2 24.6 22.8L8 6.4C7.8 6 7.8 5.6 8 5.4C8.4 5 8.8 5 9 5.4L25.4 21.2C26 21.8 26 22.8 25.4 23.4C25.2 23.6 24.8 23.8 24.4 23.8C24 23.8 23.6 23.6 23.2 23.4L8 10C7.8 9.6 7.8 9.2 8 9C8.4 8.6 8.8 8.6 9 9L25.4 23.6C26 24.2 26 25.2 25.4 25.8C25.2 26 24.8 26.2 24.4 26.2C24 26.2 23.6 26 23.2 25.6L9.2 11.2C7.4 9.2 7.6 6 9.2 4C11.2 2.2 14.6 2.2 16.6 4L25.4 13.2C25.8 13.8 25.8 14.6 25.4 15.2C24.8 15.8 24 15.8 23.4 15.2L20.2 11.4C19.8 11 19.8 10.6 20.2 10.2C20.4 10 20.8 10 21.2 10.2L23.6 14.8L16 2Z" fill="url(#flameGradient)"/>
</svg> 