<?xml version="1.0" encoding="UTF-8"?>
<svg width="32" height="32" viewBox="0 0 32 32" fill="none" xmlns="http://www.w3.org/2000/svg">
  <title>GetMeFcknABI Favicon</title>
  <defs>
    <linearGradient id="flameGradient" x1="50%" y1="0%" x2="50%" y2="100%">
      <stop offset="0%" stop-color="#FF5E62" />
      <stop offset="100%" stop-color="#FF9966" />
    </linearGradient>
  </defs>
  <path d="M16 2C17.3 2 18.5 2.5 19.3 3.5L27.9 14.1C28.9 15.3 29.4 16.7 29.2 18.2C29.1 19.7 28.4 21.1 27.3 22.1C26.1 23 24.7 23.5 23.3 23.3C22 23.3 20.6 22.6 19.8 21.6C18.3 20 18.5 17.6 19.8 16C20.1 15.7 20.3 15.3 20.3 14.9C20.3 14.5 20.1 14.1 19.8 13.7L19.6 13.5C18.9 12.8 17.9 12.8 17.2 13.5L17 13.6C15 16 13.8 19.2 13.8 22.6V23.9C13.8 25.7 13.4 27.6 12.4 29.1C11.5 30.6 9.9 32 8 32C6.3 32 4.8 31.1 3.8 30C1.7 27.6 1.8 23.8 4.2 21.6C5.4 20.6 6.1 19.2 6.1 17.5C6.1 15.2 4.7 13.2 2.8 12.2C2.4 12 2.2 11.4 2.5 11C2.6 10.8 2.8 10.7 3.1 10.6C4.3 10.1 5.6 10 6.8 10.1C8 10.3 9.2 10.9 10 11.7C10.8 12.6 11.2 13.7 11.4 14.7C11.5 16 11.2 17.2 10.7 18.3C10.1 19.4 10.5 20.9 11.8 21.7C13 22.4 14.6 21.8 15.2 20.6C15.4 20.3 15.5 20 15.5 19.7C15.5 19.2 15.5 18.8 15.3 18.3C15 17 15 15.7 15.2 14.5C15.3 13.3 15.6 12.1 16.2 11.2C16.8 9.9 17.5 8.7 18.7 7.7C19.6 6.9 20.7 6.4 21.9 6.3C23.2 6.4 24.3 6.9 25.2 7.9L21.3 3.2C20.6 2.4 19.5 2.4 18.8 3.2C18.1 4 17.9 5.2 18.8 6.1L27 16.6C27.3 16.9 27.6 16.9 27.9 16.9C28.4 16.9 28.8 16.5 28.8 16C28.8 15.8 28.7 15.5 28.5 15.2L22.6 8.1C22.4 7.8 22.4 7.4 22.6 7.1C22.9 6.9 23.3 6.9 23.6 7.1L29.2 15.2C29.5 15.5 29.5 15.8 29.5 16C29.5 16.6 29 16.9 28.5 16.9C28.2 16.9 27.9 16.8 27.7 16.6L21.5 7.3C21.3 7 21.3 6.6 21.5 6.3C21.8 6.1 22.2 6.1 22.5 6.3L29.4 16.4C29.7 16.7 29.7 17 29.7 17.3C29.7 17.9 29.2 18.2 28.7 18.2C28.4 18.2 28.1 18.1 27.8 17.8L23.1 12C22.8 11.7 22.8 11.3 23.1 11C23.4 10.7 23.8 10.7 24.1 11L27.6 17.1C27.9 17.4 27.9 17.7 27.9 17.9C27.9 18.5 27.5 18.8 27 18.8C26.7 18.8 26.4 18.7 26.1 18.4L11.1 10.2C10.8 9.9 10.8 9.5 11.1 9.2C11.4 8.9 11.8 8.9 12.1 9.2L24.7 25.4C25 25.7 25.5 25.9 25.9 25.6C26.3 25.4 26.5 24.8 26.2 24.4L9.7 7.4C9.5 7.1 9.5 6.7 9.7 6.4C10 6.1 10.4 6.1 10.7 6.4L26.5 22.8C27 23.3 27 24.3 26.5 24.7C26 25.2 25.1 25.2 24.6 24.7L8 7.4C7.7 7.1 7.7 6.7 8 6.4C8.3 6.1 8.7 6.1 9 6.4L25.4 24.3C25.9 24.8 25.9 25.8 25.4 26.3C25.1 26.6 24.7 26.8 24.3 26.8C23.9 26.8 23.5 26.6 23.2 26.3L8 10C7.7 9.7 7.7 9.3 8 9C8.3 8.7 8.7 8.7 9 9L25.4 25.6C25.9 26.2 25.9 27.2 25.4 27.8C25.1 28.1 24.7 28.2 24.3 28.2C23.9 28.2 23.5 28 23.2 27.7L9.2 12.6C7.3 10.3 7.5 6.9 9.2 4.8C11.2 2.8 14.6 2.8 16.6 4.8L25.3 15.2C25.8 15.8 25.8 16.7 25.3 17.3C24.8 17.8 23.9 17.8 23.4 17.3L20.1 13.3C19.8 13 19.8 12.6 20.1 12.3C20.4 12 20.8 12 21.1 12.3L23.6 16.8L16 2Z" fill="url(#flameGradient)"/>
</svg> 