<?xml version="1.0" encoding="UTF-8"?>
<svg width="512" height="512" viewBox="0 0 512 512" fill="none" xmlns="http://www.w3.org/2000/svg">
  <title>GetMeFcknABI Flame Logo</title>
  <defs>
    <linearGradient id="flameGradient" x1="50%" y1="0%" x2="50%" y2="100%">
      <stop offset="0%" stop-color="#FF5E62" />
      <stop offset="100%" stop-color="#FF9966" />
    </linearGradient>
  </defs>
  <path d="M256 32C276.8 32 295.8 40.5 309.6 56.5L447.2 226.2C462.8 244.8 469.8 267.9 467.5 291.7C465.1 315.1 454.1 337.2 436.2 353.2C417.6 368.5 395.0 375.8 373.5 373.2C352.0 373.2 330.3 362.5 317.5 345.7C293.5 320.0 295.7 282.2 317.5 257.0C322.3 252.3 324.7 245.8 324.7 238.5C324.7 232.0 322.3 225.5 317.5 219.9L313.2 215.7C302.5 205.0 285.6 205.0 274.9 215.7L272.8 217.7C240.8 256.1 220.6 307.2 220.6 361.0V382.8C220.6 411.0 214.3 441.2 198.3 465.0C183.3 490.2 157.7 511.1 127.4 511.1C100.7 511.1 76.5 498.3 60.8 479.6C26.5 440.8 29.0 380.9 67.1 346.3C86.4 329.5 97.3 307.1 97.3 279.8C97.3 244.0 75.5 211.7 44.5 195.6C38.1 192.8 35.9 182.9 40.1 176.4C42.3 173.6 45.5 171.5 49.5 170.1C68.8 161.7 89.7 159.4 109.2 161.7C128.5 164.0 147.8 174.5 160.6 187.9C173.4 202.1 180.0 219.4 182.2 235.9C184.6 255.8 179.9 275.1 171.4 292.5C161.0 310.9 168.2 334.7 188.9 347.4C208.6 358.7 233.3 349.6 243.7 329.9C246.2 325.5 247.9 320.5 247.9 315.4C247.9 307.8 247.9 300.2 245.5 292.9C240.8 273.0 240.8 251.9 243.1 232.0C245.5 213.8 249.4 194.5 258.8 179.1C268.2 158.0 280.9 138.7 299.9 122.6C314.9 110.0 331.8 102.4 351.1 101.7C371.0 102.4 389.5 110.1 403.7 126.6L340.5 52.0C329.4 39.1 312.0 39.1 300.9 52.0C289.8 64.9 287.5 83.8 300.9 97.9L432.4 265.1C436.7 269.8 442.6 269.8 446.9 269.8C454.1 269.8 461.5 264.1 461.5 256.8C461.5 252.8 459.1 248.1 455.2 243.5L362.2 130.2C357.9 125.5 357.9 119.2 362.2 114.5C366.5 109.8 373.7 109.8 378.0 114.5L467.5 242.9C471.8 247.5 471.8 252.2 471.8 256.8C471.8 265.7 464.4 271.1 456.2 271.1C451.7 271.1 447.0 269.1 442.9 265.0L344.6 117.3C340.3 112.6 340.3 106.3 344.6 101.6C348.9 96.9 356.1 96.9 360.4 101.6L470.2 262.2C474.5 266.8 474.5 272.2 474.5 276.8C474.5 285.7 467.1 291.1 458.9 291.1C454.4 291.1 449.7 289.1 445.6 285.0L369.4 192.2C365.1 187.5 365.1 181.2 369.4 176.5C373.7 171.8 380.9 171.8 385.2 176.5L442.5 273.0C446.8 277.6 446.8 282.3 446.8 286.9C446.8 295.7 439.4 301.2 431.2 301.2C426.7 301.2 422.0 299.2 417.9 295.1L177.1 163.2C172.8 158.5 172.8 152.2 177.1 147.5C181.4 142.8 188.6 142.8 192.9 147.5L395.6 406.5C399.8 411.9 408.5 413.8 414.9 409.9C421.3 406.0 423.4 397.2 418.7 390.7L155.9 117.9C151.6 113.2 151.6 106.9 155.9 102.2C160.2 97.5 167.4 97.5 171.7 102.2L424.5 364.7C431.6 372.9 431.6 387.3 424.5 395.4C417.3 403.6 402.9 403.6 394.3 394.7L127.9 117.9C123.6 113.2 123.6 106.9 127.9 102.2C132.2 97.5 139.4 97.5 143.7 102.2L406.0 388.3C414.1 397.4 414.1 412.8 406.0 421.9C401.5 426.4 395.6 428.2 389.5 428.2C383.4 428.2 376.4 426.0 371.9 421.5L127.9 160.7C123.6 156.0 123.6 149.7 127.9 145.0C132.2 140.3 139.4 140.3 143.7 145.0L406.0 410.4C414.1 419.5 414.1 434.9 406.0 444.0C401.5 448.5 395.6 450.3 389.5 450.3C383.4 450.3 376.4 448.1 371.9 443.6L147.5 201.6C117.0 164.9 119.3 111.0 147.5 76.6C179.4 44.9 233.0 44.9 265.0 76.6L404.5 243.5C412.6 252.6 412.6 267.9 404.5 277.1C397.3 285.2 382.9 285.2 374.4 277.1L320.9 213.0C316.6 208.3 316.6 202.0 320.9 197.3C325.2 192.6 332.4 192.6 336.7 197.3L377.9 268.3L256 32Z" fill="url(#flameGradient)"/>
</svg> 