<svg width="1200" height="630" viewBox="0 0 1200 630" xmlns="http://www.w3.org/2000/svg">
  <rect width="1200" height="630" fill="#111111"/>
  <rect x="50" y="50" width="1100" height="530" rx="15" fill="#1a1a1a" stroke="#333333" stroke-width="2"/>
  
  <!-- Flame Logo -->
  <g transform="translate(200, 275) scale(8)">
    <!-- Copy the paths from your favicon.svg here but simplified -->
    <path d="M12 2c.9 0 1.8.4 2.4 1.2l6.4 7.9c.6.8.9 1.8.8 2.9-.1 1-.6 2-1.4 2.7-.8.7-1.8 1-2.8.9-1 0-2-.5-2.6-1.2-1.1-1.2-1-3 0-4.3.2-.2.3-.5.3-.7 0-.3-.1-.5-.3-.7l-.2-.2c-.5-.5-1.2-.5-1.7 0l-.1.1c-1.5 1.8-2.4 4.1-2.4 6.7v1c0 1.3-.3 2.7-1 3.8-.7 1.2-1.9 2-3.4 2-1.3 0-2.4-.5-3.2-1.3-1.7-1.8-1.6-4.6.2-6.3.9-.8 1.5-1.9 1.5-3.2 0-1.7-1-3.2-2.5-3.9-.3-.1-.4-.6-.2-.9.1-.1.2-.2.3-.2.9-.4 1.9-.5 2.8-.4.9.1 1.8.6 2.4 1.2.6.7 1 1.5 1.1 2.3.1.9-.1 1.7-.5 2.5-.5.9-.2 2 .8 2.6.9.5 2 .1 2.5-.8.1-.2.2-.5.2-.7 0-.3 0-.5-.1-.8-.2-.9-.2-1.8-.1-2.7.1-.8.3-1.7.7-2.4.5-1 1.1-1.9 2-2.6.7-.6 1.5-.9 2.4-.9z" fill="#FF5E62"/>
  </g>
  
  <!-- Title -->
  <text x="600" y="230" font-family="Arial, sans-serif" font-size="70" font-weight="bold" fill="white" text-anchor="middle">GetMeFcknABI</text>
  
  <!-- Subtitle -->
  <text x="600" y="320" font-family="Arial, sans-serif" font-size="30" fill="#cccccc" text-anchor="middle">Smart Contract ABI Extractor</text>
  
  <!-- Tagline -->
  <text x="600" y="390" font-family="Arial, sans-serif" font-size="24" fill="#999999" text-anchor="middle">Extract ABIs from any smart contract with minimal hassle</text>
  <text x="600" y="430" font-family="Arial, sans-serif" font-size="24" fill="#999999" text-anchor="middle">Works across all EVM chains</text>
</svg> 